<?xml version="1.0" encoding="utf-8"?>
<!-- Generator: Adobe Illustrator 26.2.1, SVG Export Plug-In . SVG Version: 6.00 Build 0)  -->
<svg version="1.1" id="Layer_1" xmlns="http://www.w3.org/2000/svg" xmlns:xlink="http://www.w3.org/1999/xlink" x="0px" y="0px"
	 viewBox="0 0 220 89.9" style="enable-background:new 0 0 220 89.9;" xml:space="preserve">
<style type="text/css">
	.st0{fill-rule:evenodd;clip-rule:evenodd;fill:#231F20;stroke:#231F20;stroke-width:0.216;stroke-miterlimit:22.9256;}
	.st1{fill-rule:evenodd;clip-rule:evenodd;fill:#7BC043;stroke:#7BC043;stroke-width:0.216;stroke-miterlimit:22.9256;}
	.st2{fill-rule:evenodd;clip-rule:evenodd;fill:#F9E629;stroke:#F9E629;stroke-width:0.216;stroke-miterlimit:22.9256;}
	.st3{fill-rule:evenodd;clip-rule:evenodd;fill:#231F20;}
</style>
<g>
	<polygon class="st0" points="14.1,75.7 20.9,54.5 41.6,54.5 35.4,75.7 	"/>
	<polygon class="st1" points="11.8,73.1 18.6,52 39.3,52 33.1,73.1 	"/>
	<g>
		<polygon class="st0" points="39.8,72.9 46.9,51.9 66.6,51.9 66.6,56.7 52.7,56.7 52.2,60.7 61.9,60.9 61.9,64.9 50.3,64.5 
			48,73.1 		"/>
		<path class="st0" d="M122.3,73.3l7-21.3l15.2,0.2c0,0,4.8,0.6,5.4,4.1c0.8,4.6-5.5,9.3-9.6,9.3c-2.7,0-7.4,0-7.4,0l-1.9,7.6
			L122.3,73.3L122.3,73.3z M135.2,56.4l-1.2,4.4h4.1c0,0,2.6,0,3-1.3c0.4-1.3,0.7-2.6-0.4-2.9C139.7,56.3,135.2,56.4,135.2,56.4z"/>
		<path class="st0" d="M142,73.1l17.5-20.9l8.9-0.2l3.6,21.3h-8.7v-4h-8.9l-3,4L142,73.1L142,73.1z M156.7,65.3h6.5l-1-7.4
			L156.7,65.3z"/>
		<path class="st0" d="M174.3,73.1l7-21.1l15.8-0.1c4.7,0,6.5,6.6,3.8,9.8c-1.1,1.3-4.4,1.5-4.4,1.5l4.6,9.9h-8.9l-3.8-8.6h-3
			l-2.7,8.6H174.3L174.3,73.1z M187.5,56.4l-1.2,4.4h5c2.5,0,5.1-3.4,2.4-4.2C192.7,56.3,187.5,56.4,187.5,56.4z"/>
		<path class="st0" d="M79,52.2c3-0.6,6-0.6,8.9,0c13.2,4.3,5.5,18.4-4.6,20.6c-3.7,0.8-7.3,0.6-11,0C59.6,68.1,70,52.9,79,52.2
			L79,52.2z M80.3,56.9c-7.2,2-8.5,13.6,0.9,11.7C88.1,67,89,55.1,80.3,56.9z"/>
		<path class="st0" d="M119.2,53.4c2,1.4,2.2,2.2,3.1,4.3l-7.5,0c-0.8-2.8-7.8-3.4-7.4,0.1c0.2,2,2.6,1.9,4.8,1.9
			c7.3,0.7,10.7,3.8,7.2,9.8c-1.8,2-3.9,2.8-6.7,3.3c-3.5,0.6-7,0.6-10.5,0c-4.1-0.8-5.9-4.2-5.6-7.2l7.5,0c-1,6.3,10.3,5.7,7.3-0.2
			c-1.6-3.2-11.8,0.7-11.6-7C100,50.6,115.6,50.9,119.2,53.4z"/>
		<polygon class="st1" points="19,48.9 24.4,34 61,34 56.7,49.1 		"/>
		<path class="st1" d="M25.7,30.5c2.8-7.8,10.5-16.3,19.4-16.3l36.2,0.2l-5.2,16.3L25.7,30.5z"/>
		<polygon class="st0" points="84.1,32.2 89.9,15.4 113.1,15.6 108.3,32.2 		"/>
		<path class="st0" d="M70.1,35.1L64.9,51h25.2c8.8,0,17-6.9,18.7-15.7L70.1,35.1z"/>
		<polygon class="st2" points="81.9,30.9 87.8,14.2 111,14.2 106.2,30.9 		"/>
		<path class="st2" d="M68.6,33.2l-5.2,15.9h26.4c8.2,0,16.1-7.8,17.6-15.7L68.6,33.2z"/>
		<path class="st3" d="M202.9,54.7l0.6-2.7h-1l0.1-0.3h2.4l-0.1,0.3h-1l-0.6,2.7H202.9L202.9,54.7z M204.7,54.7h0.4l0.4-1.9
			c0-0.2,0.1-0.4,0.1-0.6c0,0.2,0,0.4,0.1,0.6l0.3,1.9h0.4l1.1-2c0.1-0.2,0.2-0.4,0.3-0.6c-0.1,0.4-0.2,0.8-0.3,1.1l-0.3,1.5h0.4
			l0.6-3h-0.5l-1.1,1.9c-0.2,0.3-0.3,0.6-0.4,0.8c0-0.2,0-0.5-0.1-0.7l-0.3-2h-0.5L204.7,54.7z"/>
	</g>
</g>
</svg>
